<svg xmlns="http://www.w3.org/2000/svg" width="17.348" height="21.217" viewBox="0 0 17.348 21.217">
  <g id="M1Aywj" transform="translate(-2269.16 -44.795)">
    <g id="Group_309" data-name="Group 309">
      <path id="Path_484" data-name="Path 484" d="M2283.394,63.252a2.034,2.034,0,0,1-.259,0,2.46,2.46,0,0,0-2.754,1.29c-1.415,2.226-4.249,1.847-5.53-.607a1.074,1.074,0,0,0-1.175-.7c-1.038.052-2.08.024-3.119.012s-1.469-.515-1.387-1.565a5.194,5.194,0,0,1,1.316-3.109,3.816,3.816,0,0,0,.937-2.427c.059-1.147.061-2.3.119-3.444a6.032,6.032,0,0,1,3.681-5.7.806.806,0,0,0,.36-.466,2.3,2.3,0,0,1,4.454-.058,1.093,1.093,0,0,0,.511.578,5.816,5.816,0,0,1,3.482,4.949c.127,1.137.115,2.291.14,3.437a4.807,4.807,0,0,0,1.151,3.344,4.951,4.951,0,0,1,1.18,3.029,1.207,1.207,0,0,1-1.287,1.43C2284.608,63.268,2284,63.252,2283.394,63.252Zm2.042-1.1a5.168,5.168,0,0,0-1.119-2.98,5.605,5.605,0,0,1-1.02-2.25c-.221-1.513-.166-3.064-.3-4.593a4.76,4.76,0,0,0-3.432-4.483c-.343-.113-.476-.235-.484-.613a1.279,1.279,0,0,0-.727-1.272c-.908-.4-1.7.132-1.8,1.27a.577.577,0,0,1-.485.611,4.583,4.583,0,0,0-3.339,3.911,26.772,26.772,0,0,0-.174,3.235A6.621,6.621,0,0,1,2271,59.663a3.01,3.01,0,0,0-.732,2.486Zm-9.676,1.138a2.381,2.381,0,0,0,2.129,1.642,2.3,2.3,0,0,0,1.993-1.642Z"/>
    </g>
  </g>
</svg>
