<svg xmlns="http://www.w3.org/2000/svg" width="10.738" height="17.567" viewBox="0 0 10.738 17.567">
  <g id="Group_313" data-name="Group 313" transform="translate(-589.274 -363.425)">
    <path id="Path_486" data-name="Path 486" d="M592.746,374.738v-.621c0-1.288.529-2.138,1.863-3.15,1.379-1.058,1.77-1.472,1.77-2.414a1.806,1.806,0,0,0-1.955-1.772,3.061,3.061,0,0,0-2.506,1.288l-2.644-2.023a6.046,6.046,0,0,1,5.243-2.621c3.2,0,5.495,1.816,5.495,4.507,0,1.7-.551,2.828-2.506,4.483-1.1.92-1.265,1.173-1.265,1.84v.483Zm-.552,3.932a2.346,2.346,0,1,1,2.346,2.322A2.336,2.336,0,0,1,592.194,378.67Z"/>
  </g>
</svg>
