<svg xmlns="http://www.w3.org/2000/svg" width="14.439" height="24.482" viewBox="0 0 14.439 24.482">
  <g id="Group_363" data-name="Group 363" transform="translate(-2707.923 -422.609)">
    <path id="Path_580" data-name="Path 580" d="M2716.794,444.125v2.966h-3.3v-2.94a12.126,12.126,0,0,1-5.567-2.16l1.951-3.277a8.86,8.86,0,0,0,5.281,1.8c1.978,0,3.1-.651,3.1-1.744,0-1.144-.885-1.743-3.591-2.419-4.344-1.067-5.983-2.576-5.983-5.438,0-2.784,2.055-4.813,5.2-5.333v-2.966h3.3v2.914a11.777,11.777,0,0,1,4.735,1.612l-1.925,3.3a8.508,8.508,0,0,0-4.371-1.223c-1.769,0-2.835.546-2.835,1.509,0,.911.6,1.3,3.616,2.16,4.084,1.17,5.958,2.94,5.958,5.671C2722.362,441.523,2720.176,443.631,2716.794,444.125Z"/>
  </g>
</svg>
